<svg xmlns="http://www.w3.org/2000/svg" viewBox="0 0 24 24">
  <path d="M12 0C5.372 0 0 5.372 0 12s5.372 12 12 12 12-5.372 12-12S18.628 0 12 0zm-.5 4.8c.725-.001 1.416.083 2.025.235.607.152 1.138.362 1.537.632.4.27.693.592.883.97.19.378.285.787.285 1.227v3.823h-4.88v.603h6.727v-.603h-1.047V7.864c0-.44-.095-.85-.285-1.227-.19-.378-.483-.7-.883-.97-.4-.27-.93-.48-1.537-.632-.607-.152-1.3-.236-2.025-.235-.725-.001-1.416.083-2.025.235-.607.152-1.138.362-1.537.632-.4.27-.693.592-.883.97-.19.378-.285.787-.285 1.227v1.82h.8V7.864c0-.44.095-.85.285-1.227.19-.378.483-.7.883-.97.4-.27.93-.48 1.537-.632.607-.152 1.3-.236 2.025-.235z" fill="#3776AB"/>
</svg> 