<?xml version="1.0" encoding="UTF-8"?>
<svg width="64px" height="64px" viewBox="0 0 256 255" version="1.1" xmlns="http://www.w3.org/2000/svg" xmlns:xlink="http://www.w3.org/1999/xlink" preserveAspectRatio="xMidYMid">
    <defs>
        <linearGradient x1="12.959%" y1="12.039%" x2="79.639%" y2="78.201%" id="linearGradient-1">
            <stop stop-color="#387EB8" offset="0%"></stop>
            <stop stop-color="#366994" offset="100%"></stop>
        </linearGradient>
        <linearGradient x1="19.128%" y1="20.579%" x2="90.742%" y2="88.429%" id="linearGradient-2">
            <stop stop-color="#FFE052" offset="0%"></stop>
            <stop stop-color="#FFC331" offset="100%"></stop>
        </linearGradient>
    </defs>
    <g>
        <path d="M126.916,0.072 C62.397,0.072 66.458,28.389 66.458,28.389 L66.526,57.996 L128.381,57.996 L128.381,66.625 L41.621,66.625 C41.621,66.625 0,61.562 0,126.649 C0,191.737 36.335,189.531 36.335,189.531 L57.874,189.531 L57.874,158.891 C57.874,158.891 56.49,122.556 93.826,122.556 L155.435,122.556 C155.435,122.556 189.434,122.984 189.434,89.786 L189.434,33.373 C189.434,33.373 194.898,0.072 126.916,0.072 Z M92.609,19.229 C99.005,19.229 104.192,24.416 104.192,30.812 C104.192,37.209 99.005,42.396 92.609,42.396 C86.212,42.396 81.025,37.209 81.025,30.812 C81.025,24.416 86.212,19.229 92.609,19.229 Z" fill="url(#linearGradient-1)"></path>
        <path d="M128.757,255.126 C193.258,255.126 189.209,226.809 189.209,226.809 L189.141,197.201 L127.286,197.201 L127.286,188.572 L214.046,188.572 C214.046,188.572 255.667,193.636 255.667,128.549 C255.667,63.46 219.332,65.666 219.332,65.666 L197.793,65.666 L197.793,96.306 C197.793,96.306 199.177,132.641 161.841,132.641 L100.232,132.641 C100.232,132.641 66.233,132.212 66.233,165.412 L66.233,221.824 C66.233,221.824 60.769,255.126 128.757,255.126 Z M163.064,235.969 C156.667,235.969 151.48,230.782 151.48,224.385 C151.48,217.988 156.667,212.801 163.064,212.801 C169.461,212.801 174.648,217.988 174.648,224.385 C174.648,230.782 169.461,235.969 163.064,235.969 Z" fill="url(#linearGradient-2)"></path>
    </g>
</svg> 